<?xml version="1.0" standalone="no"?>
<!DOCTYPE svg PUBLIC "-//W3C//DTD SVG 20010904//EN"
 "http://www.w3.org/TR/2001/REC-SVG-20010904/DTD/svg10.dtd">
<svg version="1.0" xmlns="http://www.w3.org/2000/svg"
 width="512.000000pt" height="512.000000pt" viewBox="0 0 512.000000 512.000000"
 preserveAspectRatio="xMidYMid meet">

<g transform="translate(0.000000,512.000000) scale(0.100000,-0.100000)"
fill="#000000" stroke="none">
<path d="M745 4946 c-117 -28 -308 -138 -379 -217 -71 -79 -80 -120 -72 -324
3 -93 9 -193 12 -222 6 -51 7 -51 45 -55 42 -4 31 -19 102 142 13 30 37 68 53
84 56 55 168 98 285 111 l64 7 0 41 c0 42 0 42 39 45 97 8 268 -64 323 -137
14 -18 41 -77 58 -130 49 -147 57 -159 103 -157 l39 1 6 70 c4 38 9 138 13
220 6 137 4 155 -15 205 -28 74 -69 121 -158 181 -191 130 -360 173 -518 135z"/>
<path d="M4162 4818 c-7 -7 -12 -34 -12 -60 l0 -48 55 0 55 0 0 44 c0 27 -6
51 -16 60 -18 19 -65 21 -82 4z"/>
<path d="M2445 4780 c-287 -24 -469 -151 -491 -345 -6 -49 -11 -58 -51 -91
-66 -54 -87 -103 -103 -239 -9 -73 1 -280 16 -327 2 -9 18 -21 34 -27 28 -9
30 -8 36 17 4 15 20 53 35 84 25 50 29 69 29 146 0 211 57 326 181 363 58 17
183 12 275 -12 47 -12 87 -19 90 -16 3 2 -9 26 -25 52 -82 129 -58 274 58 360
44 32 51 46 24 44 -10 -1 -58 -5 -108 -9z"/>
<path d="M4150 4552 c0 -55 12 -72 51 -72 40 0 59 24 59 76 l0 44 -55 0 -55 0
0 -48z"/>
<path d="M3596 4279 c-98 -167 -111 -222 -80 -341 22 -87 13 -126 -52 -206
-83 -104 -92 -178 -36 -286 21 -42 27 -70 32 -156 4 -81 11 -116 29 -152 12
-27 27 -48 33 -48 15 0 203 96 272 140 68 43 107 87 132 146 15 36 15 38 -16
80 -46 65 -116 218 -142 311 -17 61 -27 83 -39 83 -28 0 -67 39 -74 73 -4 17
-15 56 -26 85 -26 73 -25 117 6 147 25 26 41 28 85 16 21 -6 28 -2 44 23 10
17 22 45 26 62 l7 31 -41 -4 c-50 -6 -72 9 -89 58 l-13 36 -58 -98z"/>
<path d="M4750 4365 c0 -32 -30 -73 -61 -84 -17 -6 -35 -8 -40 -5 -17 10 -8
-41 11 -66 11 -14 20 -31 20 -37 0 -9 7 -10 26 -3 41 16 69 12 92 -13 35 -37
27 -104 -30 -258 -9 -24 -29 -40 -68 -52 -9 -3 -23 -32 -33 -71 -25 -93 -89
-236 -136 -306 -46 -68 -47 -69 -25 -113 26 -52 73 -95 161 -148 69 -42 222
-119 236 -119 2 0 14 21 27 48 19 36 26 70 30 147 5 81 12 111 34 159 54 112
46 186 -34 285 -64 80 -76 122 -55 202 31 124 18 182 -78 345 -59 101 -77 121
-77 89z"/>
<path d="M410 3236 c-44 -23 -66 -41 -70 -57 -4 -17 -25 -31 -86 -57 l-81 -34
-22 -95 c-44 -192 -55 -297 -55 -538 0 -170 4 -260 17 -345 67 -438 240 -844
495 -1165 73 -91 214 -247 219 -241 2 2 11 73 19 157 31 330 78 628 149 935
42 181 67 244 121 303 52 58 102 85 251 135 231 77 392 146 413 176 22 30 195
153 217 153 19 0 16 29 -17 167 -34 136 -62 196 -113 234 -18 14 -87 44 -153
66 -65 23 -167 62 -225 86 -90 38 -106 48 -102 64 4 15 -9 26 -67 55 -40 20
-77 34 -84 32 -6 -2 -26 -42 -45 -88 -63 -155 -153 -297 -264 -416 l-61 -65
34 -32 c20 -17 50 -44 69 -59 l33 -28 -48 -54 c-60 -65 -84 -75 -120 -46 -46
36 -139 125 -194 186 -49 54 -52 60 -47 98 7 51 33 77 86 84 22 3 41 7 41 9 0
2 -24 41 -54 86 -59 92 -104 177 -131 253 -21 57 -33 75 -49 75 -6 -1 -40 -16
-76 -34z"/>
<path d="M2413 2260 c0 -16 -11 -51 -25 -78 l-26 -49 40 -52 39 -52 -30 -92
c-17 -51 -31 -97 -31 -103 0 -6 22 -46 50 -88 27 -42 62 -100 76 -128 l26 -51
18 42 c11 23 46 83 80 135 33 51 60 100 60 109 0 8 -13 51 -29 94 l-29 79 40
53 40 53 -27 60 c-15 33 -25 68 -22 79 5 18 -2 19 -122 19 l-128 0 0 -30z"/>
<path d="M1736 1408 c-9 -12 -16 -40 -16 -61 l0 -38 58 3 c57 3 57 3 60 36 7
71 -65 113 -102 60z"/>
<path d="M1720 1157 c0 -45 25 -77 60 -77 35 0 60 32 60 77 l0 33 -60 0 -60 0
0 -33z"/>
</g>
</svg>
